<svg width="1024" height="1024" viewBox="0 0 1024 1024" fill="none" xmlns="http://www.w3.org/2000/svg">
<g clip-path="url(#clip0_5602_238)">
<path d="M399.406 365.771C399.406 428.241 450.014 478.883 512.444 478.883C574.873 478.883 625.482 428.241 625.482 365.771V163.112C625.482 100.642 574.873 50 512.444 50C450.014 50 399.406 100.642 399.406 163.112V365.771Z" fill="#0F4841"/>
<path d="M559.033 557.156L559.034 557.155C591.309 503.221 661.168 485.681 715.067 517.978L886.1 620.463C939.999 652.76 957.528 722.664 925.252 776.598L925.252 776.599C892.976 830.533 823.118 848.073 769.219 815.776L598.185 713.291C544.287 680.994 526.758 611.09 559.033 557.156Z" fill="#0F4841"/>
<path d="M94.929 772.437L94.9287 772.437C63.8205 718.35 82.4199 649.269 136.472 618.141L311.784 517.178C365.835 486.05 434.871 504.661 465.979 558.748L465.979 558.749C497.088 612.835 478.488 681.916 424.437 713.045L249.124 814.007C195.073 845.136 126.037 826.524 94.929 772.437Z" fill="#0F4841"/>
<path d="M665.344 443.334L763.813 473.585C772.726 476.324 781.939 477.995 791.248 478.563L794.875 478.784C852.762 482.311 904.05 441.724 913.954 384.542C923.823 327.588 889.32 272.215 833.929 255.804C782.346 240.521 726.932 263.273 701.115 310.498L699.644 313.182C694.426 322.729 690.55 332.953 688.128 343.562L665.344 443.334Z" fill="#0F4841"/>
<path d="M508.526 708.118L435.079 781.038C428.367 787.703 422.467 795.138 417.502 803.191L414.97 807.296C384.589 856.579 395.795 920.801 441.067 956.868C486.771 993.274 552.717 989.179 593.774 947.592C631.503 909.374 637.881 849.948 608.918 804.714L606.739 801.305C600.785 792.012 593.581 783.581 585.33 776.259L508.526 708.118Z" fill="#0F4841"/>
<path d="M358.807 444.715L333.905 345.765C331.543 336.382 328.09 327.308 323.615 318.73L319.21 310.285C293.571 261.137 235.988 237.984 183.493 255.717C127.47 274.643 95.7597 334.16 110.773 391.388C123.838 441.191 168.878 476.294 220.334 476.376L228.278 476.389C239.584 476.407 250.839 474.874 261.728 471.832L358.807 444.715Z" fill="#0F4841"/>
</g>
<defs>
<clipPath id="clip0_5602_238">
<rect width="996" height="974" fill="white" transform="translate(14 50)"/>
</clipPath>
</defs>
</svg>
